# xmcd CD database file
#
# Track frame offsets:
#	150
#	28953
#	54155
#	76084
#	98991
#	133231
#	158333
#	188819
#	207697
#	246519
#	268607
#	290727
#
# Disc length: 4230 seconds
#
# Revision: 0
# Processed by: cddbd v1.5.2PL0 Copyright (c) Steve Scherf et al.
# Submitted via: CDex 1.70beta2
#
DISCID=af10840c
DTITLE=Mike Thompson with Ernie Watts - Menagery
DYEAR=2005
DGENRE=Jazz
TTITLE0=What Comes Around Goes Around
TTITLE1=Reaching Up
TTITLE2=Safari Out
TTITLE3=Another Samba
TTITLE4=Little Flower
TTITLE5=On The Border
TTITLE6=Angels' Flight
TTITLE7=Haircut Blues
TTITLE8=The Majestic One
TTITLE9=Bern City
TTITLE10=A Simple Man
TTITLE11=Samba 6
EXTD=YEAR: 2005
EXTT0=
EXTT1=
EXTT2=
EXTT3=
EXTT4=
EXTT5=
EXTT6=
EXTT7=
EXTT8=
EXTT9=
EXTT10=
EXTT11=
PLAYORDER=
